<svg width="1982" height="524" viewBox="0 0 1982 524" fill="none" xmlns="http://www.w3.org/2000/svg">
<path d="M1787.7 1.59067C1712.3 12.5907 1662 65.1907 1653.5 142.191C1651.2 162.591 1652.4 188.991 1656.5 208.891C1660.9 230.591 1671.4 254.391 1683.8 270.991C1692.2 282.291 1708.8 298.091 1719.8 305.391C1751.6 326.391 1794.5 336.191 1836.5 331.991C1898.3 325.691 1948.3 289.591 1968.8 236.491C1973.5 224.191 1974.1 220.391 1971.9 217.991C1970.2 216.091 1968.5 215.991 1925.9 215.991C1873.6 215.991 1877.8 215.291 1849.9 229.091C1829.9 238.991 1823.5 240.991 1812.4 240.991C1786.2 240.891 1770 225.091 1765.9 195.291L1765.2 189.991L1871.3 189.791C1971.5 189.491 1977.4 189.391 1979.1 187.691C1980.7 186.191 1980.9 183.491 1981.2 166.791C1981.7 139.791 1979.6 123.491 1972.8 102.991C1956.1 52.6907 1915.9 16.5907 1863.1 4.49068C1843.3 -0.00932503 1808 -1.40933 1787.7 1.59067ZM1830.2 91.4907C1837.8 93.2907 1843.2 95.8907 1850 101.091C1858.6 107.691 1863.5 116.591 1864.9 128.191L1865.6 133.991H1816C1775.6 133.991 1766.4 133.791 1766.4 132.691C1766.4 130.191 1769.6 120.491 1771.9 115.991C1776.5 106.891 1785.7 97.9907 1794.3 94.3907C1804.2 90.0907 1819.3 88.8907 1830.2 91.4907Z" fill="white"/>
<path d="M1037.9 1.59048C1003 7.89048 973 27.8905 952.4 58.5905C932.8 87.9905 923.4 122.69 923.4 165.99C923.4 191.99 926.5 213.19 933.5 234.39C941.6 259.09 952.5 277.19 969.9 294.59C989.2 314.09 1008.2 324.49 1034.7 330.19C1047.1 332.79 1073.4 333.29 1085.4 331.09C1108.9 326.79 1129.4 316.19 1145.1 300.19C1152.4 292.69 1153.5 291.99 1155.3 292.99C1156.9 293.79 1157.4 294.99 1157.4 297.99C1157.4 306.89 1164.2 318.29 1172.5 323.59C1180.5 328.59 1184.5 328.99 1229.6 328.99H1271.5L1271.1 214.19C1270.7 89.2905 1271.1 96.9905 1265.1 79.4905C1262.2 70.9905 1255.6 57.5905 1251.3 51.2905C1233 24.7905 1193.4 3.09048 1165.4 4.19048L1157.9 4.49048L1157.4 17.7905C1157 29.4905 1156.7 31.2905 1155 32.5905C1151.1 35.3905 1147.7 34.2905 1141.1 28.1905C1125.8 13.8905 1107.8 5.19048 1086 1.49048C1074.8 -0.40952 1048.8 -0.30952 1037.9 1.59048ZM1114.7 101.49C1131.9 106.69 1147 121.39 1152.9 138.69C1156.4 149.29 1157.8 163.59 1156.5 176.09C1154.5 194.09 1148.7 206.59 1137.4 217.29C1125.2 228.89 1112.4 233.59 1095.4 232.69C1068.6 231.49 1049.6 215.19 1042.3 187.39C1039.6 176.99 1039.4 156.89 1041.9 145.99C1047.5 121.39 1065.6 103.59 1088.8 99.8905C1095.4 98.8905 1108.7 99.6905 1114.7 101.49Z" fill="white"/>
<path d="M539.901 2.09026C516.201 5.49026 492.601 17.4903 475.701 34.6903C471.201 39.2903 467.301 42.6903 467.101 42.2903C466.801 41.7903 466.301 38.8903 466.001 35.7903C464.501 23.7903 456.101 12.5903 444.601 7.19026L438.901 4.49026L386.301 4.19026C334.701 3.99026 333.701 3.99026 331.901 5.99026C330.201 7.89026 330.701 11.7903 350.301 143.69C361.401 218.39 370.901 281.69 371.501 284.49C373.301 292.59 379.801 304.99 385.301 310.79C391.901 317.59 401.001 323.49 409.301 326.19C415.101 328.09 418.701 328.39 439.101 328.79C461.501 329.19 462.301 329.09 464.301 327.09C466.401 324.99 466.401 324.99 466.401 235.69C466.401 161.19 466.701 145.39 467.901 139.59C473.301 114.09 492.001 99.9903 520.401 99.9903C548.101 99.9903 567.401 115.19 571.901 140.59C573.101 146.99 573.301 165.29 573.401 236.69C573.401 323.59 573.401 324.99 575.401 326.99C577.301 328.89 578.701 328.99 630.201 328.99C676.301 328.99 683.201 328.79 685.201 327.39L687.401 325.89V236.99C687.401 162.39 687.601 146.89 688.901 140.29C693.801 114.59 712.801 99.9903 741.401 99.9903C766.901 99.9903 784.401 112.09 792.001 134.99C793.701 139.99 793.901 146.39 794.401 211.99L794.901 283.49L797.201 289.99C804.201 309.39 819.901 323.39 839.201 327.49C844.201 328.59 853.901 328.99 877.201 328.99H908.401V226.59C908.401 115.59 908.301 112.09 902.901 92.0903C896.601 68.6903 886.401 50.8903 870.201 34.7903C848.401 13.2903 821.001 2.59026 784.401 1.29026C758.401 0.39026 742.401 3.49026 722.901 12.9903C706.701 20.8903 698.101 27.1903 683.701 41.6903C676.401 48.9903 669.601 54.9903 668.701 54.9903C666.201 54.9903 665.501 54.2903 660.401 47.4903C650.001 33.4903 635.001 21.4903 617.101 12.9903C599.201 4.39026 582.301 0.89026 559.901 1.09026C552.201 1.19026 543.201 1.59026 539.901 2.09026Z" fill="white"/>
<path d="M114.3 1.59085C61.8 11.0908 21.3 51.4908 6.5 108.991C1.6 128.491 0 141.991 0 165.991C0 189.991 1.6 203.491 6.5 222.791C16.9 263.591 39.9 296.091 71.9 315.291C83 321.891 99.1 327.891 113.4 330.691C124.1 332.791 150.8 333.091 161.4 331.091C185.4 326.791 204.5 316.991 220.8 300.691C231.2 290.291 232.2 290.191 234 300.191C236.3 312.291 242.7 320.891 253.3 325.891L258.9 328.491L303.2 328.791C346.5 329.091 347.4 329.091 347.4 327.091C347.4 322.291 308.3 59.8908 306.8 54.9908C301.5 36.7908 287.4 20.0908 270.4 11.6908C259.5 6.39085 250.7 3.99085 241.3 3.99085C236.1 3.99085 234.5 4.39085 234 5.59085C233.7 6.49085 233.4 12.4908 233.4 18.8908C233.4 29.0908 233.1 30.8908 231.6 32.2908C228.2 35.3908 224.7 34.3908 218.1 28.3908C202 13.7908 183.7 4.99085 162 1.49085C150.6 -0.409154 124.6 -0.309154 114.3 1.59085ZM192.6 101.991C210.1 107.391 225.7 124.291 230.9 143.491C233.2 151.991 234 171.091 232.4 180.691C229.7 197.791 221.2 212.491 208.6 221.891C199.2 228.991 190.4 232.091 177.9 232.691C159.9 233.591 147.3 228.891 134.8 216.491C127 208.891 122 199.891 118.8 187.991C116.2 178.791 116.2 153.191 118.7 143.991C125.1 120.191 142 104.091 165 99.9908C172 98.6908 185.1 99.6908 192.6 101.991Z" fill="white"/>
<path d="M1407.4 1.20928C1408.8 1.00931 1418.7 0.908704 1429.4 1.10869C1445.2 1.30869 1450.5 1.80914 1457.3 3.50908C1475.5 8.10906 1491.6 16.509 1504 27.8089C1512.1 35.2089 1515.7 36.3087 1519.4 32.6087C1521.2 30.8089 1521.4 29.3084 1521.4 19.5091C1521.4 13.4091 1521.9 7.60908 1522.4 6.50908C1523.3 4.90924 1524.6 4.60869 1531.7 4.60869C1541.8 4.60872 1555.3 7.3091 1565.9 11.5091C1598.9 24.3091 1622.7 50.9096 1632.2 85.4095L1634.9 95.1087L1635.2 216.609C1635.39 297.443 1635.42 328.694 1634.32 345.996C1627.89 344.049 1621.07 343 1614 343C1575.34 343 1544 374.34 1544 413C1544 433.543 1552.85 452.018 1566.94 464.824C1549.39 475.682 1528.76 483.122 1505.4 486.809C1491.9 488.909 1444.8 488.609 1430.9 486.309C1389.7 479.509 1361.7 466.209 1337.8 442.209C1317.8 422.109 1310.1 407.309 1312.4 393.309C1314.9 378.009 1327.5 364.809 1344.9 359.309C1351 357.409 1354.7 355.5 1370 355.5C1392.1 355.5 1393.5 357.809 1416.6 373.209C1436.9 386.909 1441.4 388.609 1458.9 389.309C1474.6 390.009 1483.3 388.509 1493.4 383.509C1506.6 376.909 1514 367.009 1518.5 350.109C1520.1 343.909 1520.7 338.009 1521.1 323.909C1521.4 314.01 1521.4 304.71 1521.1 303.409C1520.4 300.909 1516.8 298.609 1513.5 298.609C1512.6 298.609 1510.5 300.009 1508.8 301.709C1503.6 307.209 1490.3 316.609 1481.5 321.009C1471.7 326.009 1460.3 329.809 1449.4 331.709C1438.6 333.709 1412.1 333.409 1401.2 331.309C1341.8 319.509 1300.7 271.909 1289.9 202.609C1287.7 187.909 1286.9 159.809 1288.3 144.609C1290.9 117.809 1296.5 97.0086 1306.9 76.1087C1325.9 37.809 1357.2 12.2093 1395.5 3.70928C1400.7 2.60928 1406 1.40928 1407.4 1.20928ZM1472.4 100.609C1458.1 98.4087 1443.5 101.009 1432.9 107.709C1420.9 115.309 1412.6 126.009 1407.8 140.109C1404.2 150.709 1403.3 171.709 1405.8 184.709C1411.6 214.109 1434.1 233.609 1462.4 233.609C1478.6 233.609 1490.8 228.409 1502.4 216.709C1511 208.109 1515.2 200.809 1518.6 189.109C1520.5 182.409 1520.8 178.809 1520.8 166.609C1520.7 143.209 1516 130.409 1502.8 116.909C1494.5 108.41 1483.1 102.309 1472.4 100.609Z" fill="white"/>
<path fill-rule="evenodd" clip-rule="evenodd" d="M1600.37 362.114C1590.03 365.127 1580.84 371.186 1574 379.501C1567.15 387.816 1562.97 398.002 1562 408.728H1586.46C1587.88 392.405 1592.62 376.543 1600.37 362.107L1600.37 362.114ZM1586.46 418.282H1562C1562.97 429.009 1567.15 439.195 1573.99 447.512C1580.83 455.829 1590.03 461.889 1600.37 464.903C1592.62 450.467 1587.88 434.605 1586.46 418.282ZM1612.63 466.944C1603.36 452.248 1597.68 435.578 1596.04 418.282H1634.52C1632.89 435.578 1627.2 452.248 1617.94 466.944C1616.17 467.032 1614.4 467.032 1612.63 466.944ZM1630.2 464.896C1640.54 461.882 1649.74 455.823 1656.58 447.507C1663.42 439.192 1667.6 429.008 1668.57 418.282H1644.11C1642.69 434.605 1637.96 450.467 1630.2 464.903V464.896ZM1644.11 408.728H1668.57C1667.6 398.001 1663.43 387.815 1656.58 379.498C1649.74 371.182 1640.55 365.121 1630.2 362.107C1637.96 376.543 1642.69 392.405 1644.11 408.728ZM1612.63 360.066C1614.4 359.978 1616.17 359.978 1617.95 360.066C1627.21 374.763 1632.89 391.432 1634.52 408.728H1596.05C1597.71 391.325 1603.4 374.641 1612.63 360.066Z" fill="#00B4D8"/>
<path d="M4.64128 431.128C4.64128 424.187 6.06293 418.04 8.90624 412.688C11.8332 407.336 15.7636 403.196 20.6976 400.269C25.7152 397.259 31.2346 395.754 37.2557 395.754C42.6914 395.754 47.4163 396.841 51.4304 399.015C55.5281 401.106 58.7896 403.74 61.2147 406.918V396.883H75.6403V466H61.2147V455.714C58.7896 458.975 55.4863 461.693 51.305 463.868C47.1236 466.042 42.3569 467.129 37.0048 467.129C31.0673 467.129 25.6316 465.624 20.6976 462.613C15.7636 459.519 11.8332 455.254 8.90624 449.818C6.06293 444.299 4.64128 438.069 4.64128 431.128ZM61.2147 431.379C61.2147 426.612 60.2112 422.472 58.2042 418.96C56.2807 415.448 53.7301 412.772 50.5523 410.932C47.3745 409.092 43.9458 408.172 40.2662 408.172C36.5867 408.172 33.158 409.092 29.9802 410.932C26.8023 412.688 24.2099 415.322 22.2029 418.835C20.2795 422.263 19.3178 426.361 19.3178 431.128C19.3178 435.894 20.2795 440.076 22.2029 443.672C24.2099 447.268 26.8023 450.027 29.9802 451.951C33.2416 453.791 36.6703 454.71 40.2662 454.71C43.9458 454.71 47.3745 453.791 50.5523 451.951C53.7301 450.111 56.2807 447.435 58.2042 443.923C60.2112 440.327 61.2147 436.145 61.2147 431.379ZM122.271 395.754C127.623 395.754 132.348 396.841 136.445 399.015C140.627 401.106 143.888 403.74 146.23 406.918V396.883H160.655V467.129C160.655 473.485 159.317 479.129 156.641 484.063C153.965 489.081 150.077 493.011 144.975 495.855C139.958 498.698 133.937 500.12 126.912 500.12C117.546 500.12 109.768 497.904 103.58 493.471C97.3917 489.123 93.8794 483.185 93.0432 475.659H107.218C108.305 479.255 110.605 482.14 114.117 484.314C117.713 486.572 121.978 487.701 126.912 487.701C132.682 487.701 137.323 485.945 140.836 482.433C144.432 478.92 146.23 473.819 146.23 467.129V455.589C143.805 458.85 140.501 461.61 136.32 463.868C132.222 466.042 127.539 467.129 122.271 467.129C116.25 467.129 110.73 465.624 105.713 462.613C100.779 459.519 96.8482 455.254 93.9212 449.818C91.0779 444.299 89.6563 438.069 89.6563 431.128C89.6563 424.187 91.0779 418.04 93.9212 412.688C96.8482 407.336 100.779 403.196 105.713 400.269C110.73 397.259 116.25 395.754 122.271 395.754ZM146.23 431.379C146.23 426.612 145.226 422.472 143.219 418.96C141.296 415.448 138.745 412.772 135.567 410.932C132.39 409.092 128.961 408.172 125.281 408.172C121.602 408.172 118.173 409.092 114.995 410.932C111.817 412.688 109.225 415.322 107.218 418.835C105.294 422.263 104.333 426.361 104.333 431.128C104.333 435.894 105.294 440.076 107.218 443.672C109.225 447.268 111.817 450.027 114.995 451.951C118.257 453.791 121.685 454.71 125.281 454.71C128.961 454.71 132.39 453.791 135.567 451.951C138.745 450.111 141.296 447.435 143.219 443.923C145.226 440.327 146.23 436.145 146.23 431.379ZM242.785 429.748C242.785 432.34 242.618 434.682 242.283 436.773H189.473C189.891 442.292 191.94 446.724 195.62 450.069C199.299 453.414 203.815 455.087 209.167 455.087C216.861 455.087 222.297 451.867 225.474 445.428H240.904C238.813 451.783 235.008 457.01 229.489 461.108C224.053 465.122 217.279 467.129 209.167 467.129C202.561 467.129 196.623 465.666 191.355 462.739C186.17 459.728 182.072 455.547 179.062 450.195C176.135 444.759 174.671 438.487 174.671 431.379C174.671 424.27 176.093 418.04 178.936 412.688C181.863 407.252 185.919 403.071 191.104 400.144C196.372 397.217 202.394 395.754 209.167 395.754C215.69 395.754 221.502 397.175 226.603 400.019C231.705 402.862 235.677 406.876 238.52 412.061C241.364 417.162 242.785 423.058 242.785 429.748ZM227.858 425.232C227.774 419.964 225.893 415.74 222.213 412.563C218.533 409.385 213.976 407.796 208.54 407.796C203.606 407.796 199.383 409.385 195.871 412.563C192.358 415.657 190.268 419.88 189.599 425.232H227.858ZM208.791 381.203L190.853 391.99V380.826L208.791 370.415L226.729 380.826V391.99L208.791 381.203ZM291.73 395.754C297.166 395.754 302.016 396.883 306.281 399.141C310.63 401.398 314.017 404.743 316.442 409.176C318.867 413.608 320.08 418.96 320.08 425.232V466H305.905V427.365C305.905 421.176 304.358 416.451 301.264 413.19C298.17 409.845 293.946 408.172 288.594 408.172C283.242 408.172 278.977 409.845 275.799 413.19C272.705 416.451 271.158 421.176 271.158 427.365V466H256.858V396.883H271.158V404.785C273.5 401.942 276.468 399.726 280.064 398.137C283.744 396.548 287.633 395.754 291.73 395.754ZM333.554 431.379C333.554 424.27 334.975 418.04 337.819 412.688C340.746 407.252 344.76 403.071 349.861 400.144C354.962 397.217 360.816 395.754 367.423 395.754C375.785 395.754 382.684 397.761 388.12 401.775C393.64 405.705 397.361 411.35 399.284 418.709H383.855C382.601 415.28 380.594 412.604 377.834 410.681C375.074 408.758 371.604 407.796 367.423 407.796C361.569 407.796 356.886 409.887 353.373 414.068C349.945 418.166 348.23 423.936 348.23 431.379C348.23 438.821 349.945 444.633 353.373 448.815C356.886 452.996 361.569 455.087 367.423 455.087C375.702 455.087 381.179 451.449 383.855 444.173H399.284C397.277 451.198 393.514 456.801 387.995 460.982C382.475 465.08 375.618 467.129 367.423 467.129C360.816 467.129 354.962 465.666 349.861 462.739C344.76 459.728 340.746 455.547 337.819 450.195C334.975 444.759 333.554 438.487 333.554 431.379ZM420.811 387.725C418.219 387.725 416.044 386.847 414.288 385.091C412.532 383.335 411.654 381.161 411.654 378.568C411.654 375.976 412.532 373.802 414.288 372.045C416.044 370.289 418.219 369.411 420.811 369.411C423.32 369.411 425.452 370.289 427.208 372.045C428.965 373.802 429.843 375.976 429.843 378.568C429.843 381.161 428.965 383.335 427.208 385.091C425.452 386.847 423.32 387.725 420.811 387.725ZM427.836 396.883V466H413.536V396.883H427.836ZM441.844 431.128C441.844 424.187 443.265 418.04 446.109 412.688C449.036 407.336 452.966 403.196 457.9 400.269C462.918 397.259 468.437 395.754 474.458 395.754C479.894 395.754 484.619 396.841 488.633 399.015C492.731 401.106 495.992 403.74 498.417 406.918V396.883H512.843V466H498.417V455.714C495.992 458.975 492.689 461.693 488.507 463.868C484.326 466.042 479.559 467.129 474.207 467.129C468.27 467.129 462.834 465.624 457.9 462.613C452.966 459.519 449.036 455.254 446.109 449.818C443.265 444.299 441.844 438.069 441.844 431.128ZM498.417 431.379C498.417 426.612 497.414 422.472 495.407 418.96C493.483 415.448 490.933 412.772 487.755 410.932C484.577 409.092 481.148 408.172 477.469 408.172C473.789 408.172 470.36 409.092 467.183 410.932C464.005 412.688 461.412 415.322 459.405 418.835C457.482 422.263 456.52 426.361 456.52 431.128C456.52 435.894 457.482 440.076 459.405 443.672C461.412 447.268 464.005 450.027 467.183 451.951C470.444 453.791 473.873 454.71 477.469 454.71C481.148 454.71 484.577 453.791 487.755 451.951C490.933 450.111 493.483 447.435 495.407 443.923C497.414 440.327 498.417 436.145 498.417 431.379ZM657.036 396.883L635.586 466H620.533L606.609 414.946L592.685 466H577.633L556.057 396.883H570.608L585.034 452.453L599.71 396.883H614.637L628.687 452.202L642.987 396.883H657.036ZM731.07 429.748C731.07 432.34 730.903 434.682 730.568 436.773H677.758C678.176 442.292 680.225 446.724 683.905 450.069C687.584 453.414 692.1 455.087 697.452 455.087C705.146 455.087 710.582 451.867 713.759 445.428H729.189C727.098 451.783 723.293 457.01 717.774 461.108C712.338 465.122 705.564 467.129 697.452 467.129C690.846 467.129 684.908 465.666 679.64 462.739C674.455 459.728 670.357 455.547 667.347 450.195C664.42 444.759 662.956 438.487 662.956 431.379C662.956 424.27 664.378 418.04 667.221 412.688C670.148 407.252 674.204 403.071 679.389 400.144C684.657 397.217 690.679 395.754 697.452 395.754C703.975 395.754 709.787 397.175 714.888 400.019C719.99 402.862 723.962 406.876 726.805 412.061C729.649 417.162 731.07 423.058 731.07 429.748ZM716.143 425.232C716.059 419.964 714.178 415.74 710.498 412.563C706.818 409.385 702.261 407.796 696.825 407.796C691.891 407.796 687.668 409.385 684.156 412.563C680.643 415.657 678.553 419.88 677.884 425.232H716.143ZM759.443 407.169C761.868 403.824 765.172 401.106 769.353 399.015C773.618 396.841 778.343 395.754 783.528 395.754C789.632 395.754 795.152 397.217 800.086 400.144C805.02 403.071 808.908 407.252 811.752 412.688C814.595 418.04 816.017 424.187 816.017 431.128C816.017 438.069 814.595 444.299 811.752 449.818C808.908 455.254 804.978 459.519 799.96 462.613C795.026 465.624 789.549 467.129 783.528 467.129C778.176 467.129 773.409 466.084 769.227 463.993C765.13 461.902 761.868 459.226 759.443 455.965V466H745.143V373.174H759.443V407.169ZM801.466 431.128C801.466 426.361 800.462 422.263 798.455 418.835C796.532 415.322 793.939 412.688 790.678 410.932C787.5 409.092 784.071 408.172 780.392 408.172C776.796 408.172 773.367 409.092 770.106 410.932C766.928 412.772 764.335 415.448 762.328 418.96C760.405 422.472 759.443 426.612 759.443 431.379C759.443 436.145 760.405 440.327 762.328 443.923C764.335 447.435 766.928 450.111 770.106 451.951C773.367 453.791 776.796 454.71 780.392 454.71C784.071 454.71 787.5 453.791 790.678 451.951C793.939 450.027 796.532 447.268 798.455 443.672C800.462 440.076 801.466 435.894 801.466 431.128Z" fill="#00B4D8"/>
<path d="M4.64128 431.128C4.64128 424.187 6.06293 418.04 8.90624 412.688C11.8332 407.336 15.7636 403.196 20.6976 400.269C25.7152 397.259 31.2346 395.754 37.2557 395.754C42.6914 395.754 47.4163 396.841 51.4304 399.015C55.5281 401.106 58.7896 403.74 61.2147 406.918V396.883H75.6403V466H61.2147V455.714C58.7896 458.975 55.4863 461.693 51.305 463.868C47.1236 466.042 42.3569 467.129 37.0048 467.129C31.0673 467.129 25.6316 465.624 20.6976 462.613C15.7636 459.519 11.8332 455.254 8.90624 449.818C6.06293 444.299 4.64128 438.069 4.64128 431.128ZM61.2147 431.379C61.2147 426.612 60.2112 422.472 58.2042 418.96C56.2807 415.448 53.7301 412.772 50.5523 410.932C47.3745 409.092 43.9458 408.172 40.2662 408.172C36.5867 408.172 33.158 409.092 29.9802 410.932C26.8023 412.688 24.2099 415.322 22.2029 418.835C20.2795 422.263 19.3178 426.361 19.3178 431.128C19.3178 435.894 20.2795 440.076 22.2029 443.672C24.2099 447.268 26.8023 450.027 29.9802 451.951C33.2416 453.791 36.6703 454.71 40.2662 454.71C43.9458 454.71 47.3745 453.791 50.5523 451.951C53.7301 450.111 56.2807 447.435 58.2042 443.923C60.2112 440.327 61.2147 436.145 61.2147 431.379ZM122.271 395.754C127.623 395.754 132.348 396.841 136.445 399.015C140.627 401.106 143.888 403.74 146.23 406.918V396.883H160.655V467.129C160.655 473.485 159.317 479.129 156.641 484.063C153.965 489.081 150.077 493.011 144.975 495.855C139.958 498.698 133.937 500.12 126.912 500.12C117.546 500.12 109.768 497.904 103.58 493.471C97.3917 489.123 93.8794 483.185 93.0432 475.659H107.218C108.305 479.255 110.605 482.14 114.117 484.314C117.713 486.572 121.978 487.701 126.912 487.701C132.682 487.701 137.323 485.945 140.836 482.433C144.432 478.92 146.23 473.819 146.23 467.129V455.589C143.805 458.85 140.501 461.61 136.32 463.868C132.222 466.042 127.539 467.129 122.271 467.129C116.25 467.129 110.73 465.624 105.713 462.613C100.779 459.519 96.8482 455.254 93.9212 449.818C91.0779 444.299 89.6563 438.069 89.6563 431.128C89.6563 424.187 91.0779 418.04 93.9212 412.688C96.8482 407.336 100.779 403.196 105.713 400.269C110.73 397.259 116.25 395.754 122.271 395.754ZM146.23 431.379C146.23 426.612 145.226 422.472 143.219 418.96C141.296 415.448 138.745 412.772 135.567 410.932C132.39 409.092 128.961 408.172 125.281 408.172C121.602 408.172 118.173 409.092 114.995 410.932C111.817 412.688 109.225 415.322 107.218 418.835C105.294 422.263 104.333 426.361 104.333 431.128C104.333 435.894 105.294 440.076 107.218 443.672C109.225 447.268 111.817 450.027 114.995 451.951C118.257 453.791 121.685 454.71 125.281 454.71C128.961 454.71 132.39 453.791 135.567 451.951C138.745 450.111 141.296 447.435 143.219 443.923C145.226 440.327 146.23 436.145 146.23 431.379ZM242.785 429.748C242.785 432.34 242.618 434.682 242.283 436.773H189.473C189.891 442.292 191.94 446.724 195.62 450.069C199.299 453.414 203.815 455.087 209.167 455.087C216.861 455.087 222.297 451.867 225.474 445.428H240.904C238.813 451.783 235.008 457.01 229.489 461.108C224.053 465.122 217.279 467.129 209.167 467.129C202.561 467.129 196.623 465.666 191.355 462.739C186.17 459.728 182.072 455.547 179.062 450.195C176.135 444.759 174.671 438.487 174.671 431.379C174.671 424.27 176.093 418.04 178.936 412.688C181.863 407.252 185.919 403.071 191.104 400.144C196.372 397.217 202.394 395.754 209.167 395.754C215.69 395.754 221.502 397.175 226.603 400.019C231.705 402.862 235.677 406.876 238.52 412.061C241.364 417.162 242.785 423.058 242.785 429.748ZM227.858 425.232C227.774 419.964 225.893 415.74 222.213 412.563C218.533 409.385 213.976 407.796 208.54 407.796C203.606 407.796 199.383 409.385 195.871 412.563C192.358 415.657 190.268 419.88 189.599 425.232H227.858ZM208.791 381.203L190.853 391.99V380.826L208.791 370.415L226.729 380.826V391.99L208.791 381.203ZM291.73 395.754C297.166 395.754 302.016 396.883 306.281 399.141C310.63 401.398 314.017 404.743 316.442 409.176C318.867 413.608 320.08 418.96 320.08 425.232V466H305.905V427.365C305.905 421.176 304.358 416.451 301.264 413.19C298.17 409.845 293.946 408.172 288.594 408.172C283.242 408.172 278.977 409.845 275.799 413.19C272.705 416.451 271.158 421.176 271.158 427.365V466H256.858V396.883H271.158V404.785C273.5 401.942 276.468 399.726 280.064 398.137C283.744 396.548 287.633 395.754 291.73 395.754ZM333.554 431.379C333.554 424.27 334.975 418.04 337.819 412.688C340.746 407.252 344.76 403.071 349.861 400.144C354.962 397.217 360.816 395.754 367.423 395.754C375.785 395.754 382.684 397.761 388.12 401.775C393.64 405.705 397.361 411.35 399.284 418.709H383.855C382.601 415.28 380.594 412.604 377.834 410.681C375.074 408.758 371.604 407.796 367.423 407.796C361.569 407.796 356.886 409.887 353.373 414.068C349.945 418.166 348.23 423.936 348.23 431.379C348.23 438.821 349.945 444.633 353.373 448.815C356.886 452.996 361.569 455.087 367.423 455.087C375.702 455.087 381.179 451.449 383.855 444.173H399.284C397.277 451.198 393.514 456.801 387.995 460.982C382.475 465.08 375.618 467.129 367.423 467.129C360.816 467.129 354.962 465.666 349.861 462.739C344.76 459.728 340.746 455.547 337.819 450.195C334.975 444.759 333.554 438.487 333.554 431.379ZM420.811 387.725C418.219 387.725 416.044 386.847 414.288 385.091C412.532 383.335 411.654 381.161 411.654 378.568C411.654 375.976 412.532 373.802 414.288 372.045C416.044 370.289 418.219 369.411 420.811 369.411C423.32 369.411 425.452 370.289 427.208 372.045C428.965 373.802 429.843 375.976 429.843 378.568C429.843 381.161 428.965 383.335 427.208 385.091C425.452 386.847 423.32 387.725 420.811 387.725ZM427.836 396.883V466H413.536V396.883H427.836ZM441.844 431.128C441.844 424.187 443.265 418.04 446.109 412.688C449.036 407.336 452.966 403.196 457.9 400.269C462.918 397.259 468.437 395.754 474.458 395.754C479.894 395.754 484.619 396.841 488.633 399.015C492.731 401.106 495.992 403.74 498.417 406.918V396.883H512.843V466H498.417V455.714C495.992 458.975 492.689 461.693 488.507 463.868C484.326 466.042 479.559 467.129 474.207 467.129C468.27 467.129 462.834 465.624 457.9 462.613C452.966 459.519 449.036 455.254 446.109 449.818C443.265 444.299 441.844 438.069 441.844 431.128ZM498.417 431.379C498.417 426.612 497.414 422.472 495.407 418.96C493.483 415.448 490.933 412.772 487.755 410.932C484.577 409.092 481.148 408.172 477.469 408.172C473.789 408.172 470.36 409.092 467.183 410.932C464.005 412.688 461.412 415.322 459.405 418.835C457.482 422.263 456.52 426.361 456.52 431.128C456.52 435.894 457.482 440.076 459.405 443.672C461.412 447.268 464.005 450.027 467.183 451.951C470.444 453.791 473.873 454.71 477.469 454.71C481.148 454.71 484.577 453.791 487.755 451.951C490.933 450.111 493.483 447.435 495.407 443.923C497.414 440.327 498.417 436.145 498.417 431.379ZM657.036 396.883L635.586 466H620.533L606.609 414.946L592.685 466H577.633L556.057 396.883H570.608L585.034 452.453L599.71 396.883H614.637L628.687 452.202L642.987 396.883H657.036ZM731.07 429.748C731.07 432.34 730.903 434.682 730.568 436.773H677.758C678.176 442.292 680.225 446.724 683.905 450.069C687.584 453.414 692.1 455.087 697.452 455.087C705.146 455.087 710.582 451.867 713.759 445.428H729.189C727.098 451.783 723.293 457.01 717.774 461.108C712.338 465.122 705.564 467.129 697.452 467.129C690.846 467.129 684.908 465.666 679.64 462.739C674.455 459.728 670.357 455.547 667.347 450.195C664.42 444.759 662.956 438.487 662.956 431.379C662.956 424.27 664.378 418.04 667.221 412.688C670.148 407.252 674.204 403.071 679.389 400.144C684.657 397.217 690.679 395.754 697.452 395.754C703.975 395.754 709.787 397.175 714.888 400.019C719.99 402.862 723.962 406.876 726.805 412.061C729.649 417.162 731.07 423.058 731.07 429.748ZM716.143 425.232C716.059 419.964 714.178 415.74 710.498 412.563C706.818 409.385 702.261 407.796 696.825 407.796C691.891 407.796 687.668 409.385 684.156 412.563C680.643 415.657 678.553 419.88 677.884 425.232H716.143ZM759.443 407.169C761.868 403.824 765.172 401.106 769.353 399.015C773.618 396.841 778.343 395.754 783.528 395.754C789.632 395.754 795.152 397.217 800.086 400.144C805.02 403.071 808.908 407.252 811.752 412.688C814.595 418.04 816.017 424.187 816.017 431.128C816.017 438.069 814.595 444.299 811.752 449.818C808.908 455.254 804.978 459.519 799.96 462.613C795.026 465.624 789.549 467.129 783.528 467.129C778.176 467.129 773.409 466.084 769.227 463.993C765.13 461.902 761.868 459.226 759.443 455.965V466H745.143V373.174H759.443V407.169ZM801.466 431.128C801.466 426.361 800.462 422.263 798.455 418.835C796.532 415.322 793.939 412.688 790.678 410.932C787.5 409.092 784.071 408.172 780.392 408.172C776.796 408.172 773.367 409.092 770.106 410.932C766.928 412.772 764.335 415.448 762.328 418.96C760.405 422.472 759.443 426.612 759.443 431.379C759.443 436.145 760.405 440.327 762.328 443.923C764.335 447.435 766.928 450.111 770.106 451.951C773.367 453.791 776.796 454.71 780.392 454.71C784.071 454.71 787.5 453.791 790.678 451.951C793.939 450.027 796.532 447.268 798.455 443.672C800.462 440.076 801.466 435.894 801.466 431.128Z" fill="#00B4D8"/>
</svg>
